<svg xmlns="http://www.w3.org/2000/svg" viewBox="0 0 105.25 106.23"><defs><style>.cls-1{opacity:0.5;}.cls-2{fill:none;}.cls-2,.cls-3{stroke:#00a7e1;stroke-miterlimit:10;}.cls-3{fill:#00a7e1;}</style></defs><title>Asset 4</title><g id="Layer_2" data-name="Layer 2"><g id="Layer_1-2" data-name="Layer 1"><g class="cls-1"><path class="cls-2" d="M46.55,33.13c28.59-7.51,54.48-5,57.84,5.64S87.29,64.08,58.7,71.59,4.21,76.57.86,65.95,18,40.63,46.55,33.13Z"/><path class="cls-2" d="M68.15,38.72c24.79,20.86,39.33,44.44,32.49,52.65s-32.49-2-57.28-22.91S4,24,10.87,15.82,43.36,17.86,68.15,38.72Z"/><path class="cls-2" d="M33.83,46.07c9.37-28.79,25.48-49,36-45.08s11.43,30.39,2.07,59.18-25.48,49-36,45.08S24.47,74.86,33.83,46.07Z"/><path class="cls-3" d="M66,48.86a12,12,0,0,1-8.65,15.36A13.57,13.57,0,0,1,41,55.4,12,12,0,0,1,49.67,40,13.57,13.57,0,0,1,66,48.86Z"/></g></g></g></svg>