<svg xmlns="http://www.w3.org/2000/svg" viewBox="0 0 107.64 118.3"><defs><style>.cls-1{fill:none;stroke:#00a7e1;stroke-miterlimit:10;opacity:0.5;}</style></defs><title>Asset 2</title><g id="Layer_2" data-name="Layer 2"><g id="Layer_1-2" data-name="Layer 1"><path class="cls-1" d="M57.79,12.29l3.73-9.22A1.85,1.85,0,0,0,60.21.59,2.42,2.42,0,0,0,57.34,1.9L53.4,11.63a37.15,37.15,0,0,0-21.93,4.73l-7.6-7.23a2.42,2.42,0,0,0-3.15,0,1.85,1.85,0,0,0-.18,2.81l7.2,6.86c-9.53,7.1-14.69,18.38-12.28,29.57a2.12,2.12,0,0,0,2.61,1.46L79.4,36.57a2.12,2.12,0,0,0,1.77-2.4C78.76,23,69.41,14.83,57.79,12.29Z"/><path class="cls-1" d="M60.66,24.05l-2.92.63a1.41,1.41,0,0,0-1.19,1.59h0l.55,2.55a1.41,1.41,0,0,0,1.73,1l2.92-.63a1.41,1.41,0,0,0,1.19-1.59h0L62.39,25A1.41,1.41,0,0,0,60.66,24.05ZM33.15,30l-2.92.63A1.41,1.41,0,0,0,29,32.21h0l.55,2.55a1.41,1.41,0,0,0,1.73,1l2.92-.63a1.41,1.41,0,0,0,1.19-1.59h0l-.55-2.55a1.41,1.41,0,0,0-1.73-1ZM80,39.23,18.64,52.47a2.12,2.12,0,0,0-1.77,2.4l8.39,38.87c1.12,5.14,6.75,8.28,12.6,7l2.8-.6,2.5,11.6c.92,4.25,5.59,6.86,10.43,5.82s8-5.35,7.1-9.6l-2.5-11.6,4.14-.89,2.5,11.6c.92,4.25,5.59,6.86,10.43,5.82s8-5.35,7.1-9.6l-2.5-11.6,2.55-.55c5.84-1.26,9.68-6.45,8.58-11.59L82.59,40.68A2.12,2.12,0,0,0,80,39.23ZM92,36.68c-4.23.91-7,4.69-6.21,8.42l5.83,27c.81,3.73,4.9,6,9.13,5.11s7-4.69,6.21-8.42l-5.83-27C100.36,38.06,96.28,35.77,92,36.68ZM6.85,55.06c-4.23.91-7,4.69-6.21,8.42l5.83,27c.81,3.73,4.9,6,9.13,5.11s7-4.69,6.21-8.42L16,60.18C15.17,56.44,11.08,54.16,6.85,55.06Z"/></g></g></svg>